<?xml version="1.0" encoding="UTF-8" standalone="no"?><!DOCTYPE svg PUBLIC "-//W3C//DTD SVG 1.1//EN" "http://www.w3.org/Graphics/SVG/1.1/DTD/svg11.dtd"><svg width="100%" height="100%" viewBox="0 0 10 10" version="1.1" xmlns="http://www.w3.org/2000/svg" xmlns:xlink="http://www.w3.org/1999/xlink" xml:space="preserve" xmlns:serif="http://www.serif.com/" style="fill-rule:evenodd;clip-rule:evenodd;stroke-linejoin:round;stroke-miterlimit:2;"><g id="Layer1"></g><rect x="0.72" y="2.4" width="8.137" height="4.62" style="fill:#1f4085;"/><rect x="8.594" y="2.64" width="0.526" height="4.14" style="fill:#a6b4c4;"/><path d="M2.724,5.694l0,-2.143l-0.494,0l-0.693,0.464l0,0.476l0.661,-0.439l0.032,0l0,1.642l-0.691,0l0,0.421l1.841,0l0,-0.421l-0.656,0Z" style="fill:#a6b4c4;fill-rule:nonzero;"/><path d="M4.862,5.195l0.738,0l0,-0.441l-0.738,0l0,-0.741l-0.456,0l0,0.741l-0.738,0l0,0.441l0.738,0l0,0.741l0.456,0l0,-0.741Z" style="fill:#a6b4c4;fill-rule:nonzero;"/><path d="M5.964,4.324l0,0.01l0.469,0l0,-0.012c0,-0.245 0.171,-0.412 0.425,-0.412c0.249,0 0.41,0.145 0.41,0.368c0,0.172 -0.09,0.307 -0.44,0.657l-0.836,0.826l0,0.354l1.808,0l0,-0.425l-1.122,0l0,-0.032l0.502,-0.478c0.433,-0.416 0.581,-0.655 0.581,-0.936c0,-0.444 -0.358,-0.745 -0.887,-0.745c-0.539,0 -0.91,0.334 -0.91,0.825Z" style="fill:#a6b4c4;fill-rule:nonzero;"/></svg>